HIERARCHY
ROOT Hips
{
 OFFSET 0.000000 0.000000 0.000000
 CHANNELS 6 Xposition Yposition Zposition Yrotation Xrotation Zrotation
 JOINT Chest
 {
  OFFSET 0.000000 9.585900 0.002600
  CHANNELS 3 Yrotation Xrotation Zrotation
  JOINT Chest2
  {
   OFFSET 0.000000 9.601200 -0.005300
   CHANNELS 3 Yrotation Xrotation Zrotation
   JOINT Chest3
   {
    OFFSET 0.000000 9.561800 0.000000
    CHANNELS 3 Yrotation Xrotation Zrotation
    JOINT Chest4
    {
     OFFSET 0.000000 9.552100 0.000000
     CHANNELS 3 Yrotation Xrotation Zrotation
     JOINT Neck
     {
      OFFSET 0.000000 14.453000 0.000000
      CHANNELS 3 Yrotation Xrotation Zrotation
      JOINT Head
      {
       OFFSET 0.000000 8.936500 -0.011300
       CHANNELS 3 Yrotation Xrotation Zrotation
       End Site
       {
        OFFSET 0.000000 17.073600 -0.006000
       }
      }
     }
     JOINT RightCollar
     {
      OFFSET -2.921100 9.558500 0.000000
      CHANNELS 3 Yrotation Xrotation Zrotation
      JOINT RightShoulder
      {
       OFFSET -13.519700 0.000000 0.000000
       CHANNELS 3 Yrotation Xrotation Zrotation
       JOINT RightElbow
       {
        OFFSET 0.000000 -29.696600 0.000000
        CHANNELS 3 Yrotation Xrotation Zrotation
        JOINT RightWrist
        {
         OFFSET 0.000000 -24.004700 0.000000
         CHANNELS 3 Yrotation Xrotation Zrotation
         End Site
         {
          OFFSET 0.000000 -17.728500 0.000000
         }
        }
       }
      }
     }
     JOINT LeftCollar
     {
      OFFSET 2.921100 9.558500 0.000000
      CHANNELS 3 Yrotation Xrotation Zrotation
      JOINT LeftShoulder
      {
       OFFSET 13.519700 0.000000 0.000000
       CHANNELS 3 Yrotation Xrotation Zrotation
       JOINT LeftElbow
       {
        OFFSET 0.000000 -29.696600 0.000000
        CHANNELS 3 Yrotation Xrotation Zrotation
        JOINT LeftWrist
        {
         OFFSET 0.000000 -24.004700 0.000000
         CHANNELS 3 Yrotation Xrotation Zrotation
         End Site
         {
          OFFSET 0.000000 -17.728500 0.000000
         }
        }
       }
      }
     }
    }
   }
  }
 }
 JOINT RightHip
 {
  OFFSET -7.771700 -0.012900 -0.001300
  CHANNELS 3 Yrotation Xrotation Zrotation
  JOINT RightKnee
  {
   OFFSET 0.000000 -40.869800 0.001200
   CHANNELS 3 Yrotation Xrotation Zrotation
   JOINT RightAnkle
   {
    OFFSET 0.000000 -39.717900 0.002100
    CHANNELS 3 Yrotation Xrotation Zrotation
    JOINT RightToe
    {
     OFFSET 0.000000 -4.965400 11.033500
     CHANNELS 3 Yrotation Xrotation Zrotation
     End Site
     {
      OFFSET 0.000000 -1.423100 5.872300
     }
    }
   }
  }
 }
 JOINT LeftHip
 {
  OFFSET 7.771700 -0.012900 -0.001300
  CHANNELS 3 Yrotation Xrotation Zrotation
  JOINT LeftKnee
  {
   OFFSET 0.000000 -40.869800 0.001200
   CHANNELS 3 Yrotation Xrotation Zrotation
   JOINT LeftAnkle
   {
    OFFSET 0.000000 -39.717900 0.002100
    CHANNELS 3 Yrotation Xrotation Zrotation
    JOINT LeftToe
    {
     OFFSET 0.000000 -4.965400 11.033500
     CHANNELS 3 Yrotation Xrotation Zrotation
     End Site
     {
      OFFSET 0.000000 -1.423100 5.872300
     }
    }
   }
  }
 }
}
MOTION
Frames: 8
Frame Time: 0.008333
0.000000 85.388000 0.000000 0.000000 -5.767877 0.000000 0.000000 11.653817 0.000000 0.000000 -5.885947 0.000000 0.000000 -0.000000 0.000000 0.000000 -0.000000 0.000000 0.000000 12.528835 0.000000 0.000000 0.711642 0.000000 0.000000 -0.000000 0.000000 0.000000 0.000000 -90.000000 0.000000 -2.309062 0.000000 0.000000 2.309062 0.000000 0.000000 -0.000000 0.000000 0.000000 -0.000000 90.000000 0.000000 -2.309062 0.000000 0.000000 2.309062 0.000000 0.000000 8.520406 0.000000 0.000000 1.905762 0.000000 -0.000000 -4.658285 0.000000 0.000000 -0.000000 0.000000 0.000000 8.520406 0.000000 0.000000 1.905762 0.000000 -0.000000 -4.658285 0.000000 0.000000 -0.000000 0.000000
-5.473736 55.228664 -24.217019 179.633959 -16.327176 -1.519530 -0.651989 15.852800 0.648301 -0.058124 1.506622 0.104761 -0.107089 2.644114 0.146305 -0.472329 14.075000 0.836995 3.349458 21.054845 -0.560899 3.732050 -3.322016 -1.346346 3.711613 0.393189 -0.845301 0.366630 -2.599197 -0.797626 -71.983382 -13.126280 102.442316 -39.701431 -21.253537 -0.384126 -4.109125 2.119472 2.854813 10.166305 -7.367649 -0.106099 63.546838 -19.992424 -101.078126 29.183947 -29.661940 -1.528944 0.428898 -58.544043 12.409273 -120.338659 88.508549 -124.807253 -10.469384 -22.695020 14.689393 0.047432 -0.024837 0.051311 10.011920 -55.338957 -5.795431 114.277947 77.471721 112.227619 -6.583764 -23.674705 0.553220 0.059591 0.279129 0.029371
-5.474355 55.227464 -24.215328 179.628601 -16.297351 -1.508326 -0.657132 15.862843 0.629049 -0.060641 1.542965 0.094602 -0.098990 2.590718 0.158033 -0.489480 14.160175 0.790681 3.296697 20.965443 -0.552440 3.660722 -3.363496 -1.346124 3.718047 0.360273 -0.805917 0.358486 -2.623664 -0.836984 -71.917589 -13.062113 102.369246 -39.734278 -21.516492 -0.507935 -4.099804 2.118713 2.885622 10.238263 -7.378959 -0.104455 63.546660 -19.777925 -101.064419 29.272003 -29.755018 -1.498752 0.465291 -58.576090 12.402250 -120.385685 88.506741 -124.866857 -10.536031 -22.698711 14.701339 -0.003682 -0.019147 0.055640 10.035410 -55.365930 -5.818846 114.264081 77.473724 112.208604 -6.582060 -23.674982 0.556281 0.055197 0.282209 0.028769
-5.474783 55.226220 -24.214548 179.624501 -16.268764 -1.497822 -0.668144 15.873467 0.609539 -0.063030 1.555105 0.091398 -0.100298 2.595131 0.155208 -0.480254 14.131139 0.790528 3.209137 20.968027 -0.573467 3.586985 -3.395132 -1.345812 3.721907 0.416207 -0.797627 0.352364 -2.648518 -0.886950 -71.850480 -12.974115 102.302827 -39.761334 -21.695600 -0.595803 -4.106835 2.205497 2.871611 10.300619 -7.418632 -0.104341 63.547491 -19.531402 -101.024920 29.361275 -29.843943 -1.482561 0.484038 -58.608254 12.405430 -120.333403 88.500834 -124.804959 -10.672810 -22.693174 14.713434 0.009100 -0.008388 0.061345 10.057378 -55.392871 -5.841704 114.261089 77.475849 112.201017 -6.579256 -23.672747 0.559857 0.051833 0.279592 0.026081
-5.474572 55.224762 -24.214283 179.622386 -16.238756 -1.491332 -0.684363 15.882359 0.594334 -0.064050 1.557384 0.090554 -0.105974 2.610438 0.150844 -0.492569 14.142735 0.777044 3.197932 20.917354 -0.576283 3.460433 -3.389096 -1.334545 3.760112 0.439243 -0.785835 0.326678 -2.625572 -0.983475 -71.781485 -12.847450 102.306591 -39.786246 -21.800143 -0.658140 -4.086693 2.257216 2.862004 10.363632 -7.465551 -0.109685 63.548075 -19.277679 -100.975767 29.455159 -29.934061 -1.473876 0.494232 -58.640724 12.398435 -120.617759 88.506220 -125.092820 -10.688363 -22.696920 14.711183 0.010313 -0.010132 0.055797 10.071817 -55.422832 -5.858473 114.267041 77.479950 112.201591 -6.571760 -23.669979 0.565980 0.046769 0.278499 0.021459
-5.474566 55.223178 -24.215067 179.621212 -16.210233 -1.483843 -0.705964 15.891477 0.580794 -0.059120 1.550048 0.089195 -0.114954 2.624128 0.151057 -0.514293 14.165525 0.766372 3.106165 20.915827 -0.597324 3.410104 -3.399672 -1.340103 3.810191 0.476113 -0.784905 0.308089 -2.676420 -1.028717 -71.703771 -12.741747 102.234799 -39.804824 -21.847922 -0.706894 -4.059811 2.313156 2.835063 10.428906 -7.520253 -0.117586 63.550185 -19.018678 -100.918329 29.553854 -30.036292 -1.460744 0.503307 -58.671832 12.406201 -120.563964 88.495886 -125.041458 -10.752702 -22.692443 14.723727 0.011866 -0.011074 0.051224 10.077180 -55.450713 -5.869823 114.279430 77.485064 112.203647 -6.562129 -23.669070 0.571073 0.040634 0.278538 0.017239
-5.474451 55.221536 -24.217185 179.623637 -16.184390 -1.478096 -0.734205 15.902519 0.570687 -0.041598 1.523353 0.086189 -0.139271 2.657277 0.153799 -0.538054 14.174790 0.760417 3.012569 20.944718 -0.615833 3.367703 -3.398579 -1.348266 3.868338 0.540630 -0.790455 0.276418 -2.695764 -1.104002 -71.626298 -12.617457 102.218731 -39.817446 -21.857959 -0.741150 -4.030425 2.388897 2.793243 10.477287 -7.617318 -0.116543 63.568688 -18.727825 -100.831152 29.657694 -30.163526 -1.434502 0.505056 -58.700020 12.411344 -120.580326 88.486015 -125.051545 -10.805178 -22.688931 14.728177 0.010538 -0.014497 0.044650 10.073746 -55.476393 -5.876699 114.301197 77.487801 112.214585 -6.554487 -23.670434 0.574927 0.036583 0.277492 0.014021
-5.474009 55.219875 -24.220722 179.630684 -16.161237 -1.475556 -0.768449 15.915116 0.563424 -0.042392 1.527042 0.085604 -0.147263 2.658794 0.153671 -0.568353 14.182056 0.754036 2.955025 20.972049 -0.626242 3.308249 -3.369186 -1.346155 3.938322 0.622517 -0.793550 0.245183 -2.725032 -1.186081 -71.555482 -12.491102 102.210537 -39.829293 -21.849135 -0.759270 -3.994472 2.477418 2.745553 10.555291 -7.678844 -0.134960 63.575822 -18.453201 -100.782877 29.771265 -30.328720 -1.400230 0.497996 -58.722353 12.394598 -121.210782 88.498787 -125.703190 -10.658748 -22.704575 14.707244 0.018310 -0.031028 0.029589 10.059307 -55.498824 -5.877257 114.315809 77.487433 112.218188 -6.552900 -23.675147 0.582054 0.029369 0.278096 0.009832
